<svg width="50" height="50" viewBox="0 0 50 50" fill="none" xmlns="http://www.w3.org/2000/svg">
<rect x="0.5" y="0.5" width="49" height="49" rx="14.5" fill="white" stroke="#FE5F00"/>
<path d="M21.3333 32.3333C22.0697 32.3333 22.6667 31.7364 22.6667 31C22.6667 30.2636 22.0697 29.6667 21.3333 29.6667C20.597 29.6667 20 30.2636 20 31C20 31.7364 20.597 32.3333 21.3333 32.3333Z" stroke="#FE5F00" stroke-width="1.5" stroke-linecap="round" stroke-linejoin="round"/>
<path d="M29.3333 32.3333C30.0697 32.3333 30.6667 31.7364 30.6667 31C30.6667 30.2636 30.0697 29.6667 29.3333 29.6667C28.597 29.6667 28 30.2636 28 31C28 31.7364 28.597 32.3333 29.3333 32.3333Z" stroke="#FE5F00" stroke-width="1.5" stroke-linecap="round" stroke-linejoin="round"/>
<path d="M19.78 21H31.3333L30.2133 26.5933C30.1523 26.9003 29.9854 27.176 29.7416 27.3722C29.4978 27.5684 29.1928 27.6727 28.88 27.6667H21.8333C21.5077 27.6694 21.1924 27.553 20.9468 27.3393C20.7012 27.1256 20.5423 26.8295 20.5 26.5067L19.4866 18.8267C19.4446 18.5062 19.2876 18.2118 19.0448 17.9984C18.8019 17.7851 18.4899 17.6672 18.1666 17.6667H16.6666" stroke="#FE5F00" stroke-width="1.5" stroke-linecap="round" stroke-linejoin="round"/>
</svg>
